<?xml version="1.0" standalone="no"?>
<!DOCTYPE svg PUBLIC "-//W3C//DTD SVG 20010904//EN"
 "http://www.w3.org/TR/2001/REC-SVG-20010904/DTD/svg10.dtd">
<svg version="1.0" xmlns="http://www.w3.org/2000/svg"
 width="512.000000pt" height="512.000000pt" viewBox="0 0 512.000000 512.000000"
 preserveAspectRatio="xMidYMid meet">

<metadata>
Created by potrace 1.16, written by Peter Selinger 2001-2019
</metadata>
<g transform="translate(0.000000,512.000000) scale(0.100000,-0.100000)"
fill="" stroke="none">
<path d="M2260 4795 c-1013 -141 -1805 -933 -1934 -1933 -21 -161 -21 -443 0
-604 113 -877 751 -1617 1607 -1864 201 -58 327 -76 568 -81 254 -6 409 10
615 62 864 221 1504 912 1665 1795 31 166 38 498 14 681 -127 1006 -931 1814
-1933 1943 -150 19 -465 20 -602 1z m959 -1015 c136 -33 250 -98 357 -205 77
-77 98 -105 141 -192 88 -175 88 -173 88 -823 0 -611 -1 -618 -56 -758 -76
-193 -237 -354 -430 -431 -141 -56 -147 -56 -759 -56 -650 0 -648 0 -823 88
-87 43 -115 64 -193 141 -78 79 -97 105 -141 196 -84 170 -83 165 -83 820 0
634 1 647 66 788 80 175 207 303 381 385 140 65 147 65 788 66 547 1 585 0
664 -19z"/>
<path d="M2010 3529 c-175 -25 -331 -148 -390 -306 -37 -99 -42 -184 -38 -718
4 -497 4 -512 26 -577 61 -182 216 -311 407 -339 83 -12 1014 -11 1099 1 211
31 385 205 416 416 7 46 10 258 8 600 -4 526 -4 529 -27 593 -67 182 -217 303
-409 331 -80 12 -1013 11 -1092 -1z m1270 -206 c39 -26 49 -45 50 -85 0 -45
-38 -94 -80 -103 -34 -7 -81 14 -104 47 -58 83 52 198 134 141z m-571 -148
c217 -52 414 -249 466 -466 19 -82 19 -216 0 -298 -52 -217 -249 -414 -466
-466 -82 -19 -216 -19 -298 0 -165 39 -329 168 -409 322 -51 99 -72 182 -72
293 0 111 21 194 72 293 79 152 243 282 405 321 77 19 223 19 302 1z"/>
<path d="M2443 2936 c-104 -34 -194 -114 -241 -214 -24 -50 -27 -69 -27 -162
0 -99 2 -110 32 -171 39 -80 111 -150 191 -187 50 -24 69 -27 162 -27 99 0
110 2 171 32 80 39 150 111 187 191 24 50 27 69 27 162 0 93 -3 112 -27 162
-37 80 -107 152 -186 190 -56 28 -77 33 -156 35 -57 2 -107 -2 -133 -11z"/>
</g>
</svg>
