<?xml version="1.0" standalone="no"?>
<!DOCTYPE svg PUBLIC "-//W3C//DTD SVG 20010904//EN"
 "http://www.w3.org/TR/2001/REC-SVG-20010904/DTD/svg10.dtd">
<svg version="1.0" xmlns="http://www.w3.org/2000/svg"
 width="512.000000pt" height="512.000000pt" viewBox="0 0 512.000000 512.000000"
 preserveAspectRatio="xMidYMid meet">

<g transform="translate(0.000000,512.000000) scale(0.100000,-0.100000)"
fill="#000000" stroke="none">
<path d="M2315 5109 c-800 -83 -1501 -518 -1927 -1196 -487 -774 -516 -1777
-75 -2578 200 -364 487 -676 841 -913 238 -159 600 -311 876 -366 214 -43 295
-51 530 -51 236 0 333 10 532 51 879 183 1616 843 1897 1699 93 282 126 493
126 805 0 301 -32 513 -116 775 -124 390 -330 728 -622 1024 -399 404 -893
653 -1462 737 -123 18 -478 26 -600 13z m-540 -1383 c19 -8 57 -36 84 -61 191
-179 63 -499 -199 -498 -227 0 -363 252 -241 445 74 117 229 167 356 114z
m1560 -741 c200 -51 329 -182 387 -392 21 -75 22 -100 26 -650 l3 -573 -245 0
-245 0 -3 483 c-3 468 -4 483 -25 535 -51 125 -111 166 -243 167 -69 0 -94 -5
-132 -23 -88 -43 -140 -125 -158 -248 -5 -38 -10 -259 -10 -491 l0 -423 -235
0 -235 0 2 793 3 792 233 3 232 2 0 -104 0 -105 83 82 c86 86 148 124 249 151
71 20 239 20 313 1z m-1425 -820 l0 -795 -245 0 -245 0 0 795 0 795 245 0 245
0 0 -795z"/>
</g>
</svg>
