<?xml version="1.0" standalone="no"?>
<!DOCTYPE svg PUBLIC "-//W3C//DTD SVG 20010904//EN"
 "http://www.w3.org/TR/2001/REC-SVG-20010904/DTD/svg10.dtd">
<svg version="1.0" xmlns="http://www.w3.org/2000/svg"
 width="512.000000pt" height="512.000000pt" viewBox="0 0 512.000000 512.000000"
 preserveAspectRatio="xMidYMid meet">
<metadata>
Created by potrace 1.16, written by Peter Selinger 2001-2019
</metadata>
<g transform="translate(0.000000,512.000000) scale(0.100000,-0.100000)"
fill="" stroke="none">
<path d="M2260 4795 c-1013 -141 -1805 -933 -1934 -1933 -21 -161 -21 -443 0
-604 113 -877 751 -1617 1607 -1864 201 -58 327 -76 568 -81 254 -6 409 10
615 62 864 221 1504 912 1665 1795 31 166 38 498 14 681 -127 1006 -931 1814
-1933 1943 -150 19 -465 20 -602 1z m755 -1037 c11 -77 52 -203 92 -281 82
-156 244 -258 471 -297 l72 -12 0 -194 c0 -149 -3 -194 -12 -194 -7 0 -56 7
-108 14 -161 25 -335 89 -460 169 l-55 36 -5 -522 c-7 -587 -5 -570 -85 -732
-98 -200 -262 -336 -480 -400 -73 -22 -111 -27 -200 -28 -134 0 -216 19 -340
78 -201 97 -352 278 -411 495 -25 90 -25 300 0 390 59 217 210 398 411 495
114 55 194 74 339 82 l116 6 0 -196 0 -197 -57 0 c-201 0 -341 -78 -411 -228
-24 -50 -27 -70 -27 -157 0 -87 3 -107 27 -157 127 -271 508 -300 666 -50 64
100 62 66 62 1044 l0 888 194 0 194 0 7 -52z"/>
</g>
</svg>
