<?xml version="1.0" standalone="no"?>
<!DOCTYPE svg PUBLIC "-//W3C//DTD SVG 20010904//EN"
 "http://www.w3.org/TR/2001/REC-SVG-20010904/DTD/svg10.dtd">
<svg version="1.0" xmlns="http://www.w3.org/2000/svg"
 width="512.000000pt" height="512.000000pt" viewBox="0 0 512.000000 512.000000"
 preserveAspectRatio="xMidYMid meet">
<metadata>
Created by potrace 1.16, written by Peter Selinger 2001-2019
</metadata>
<g transform="translate(0.000000,512.000000) scale(0.100000,-0.100000)"
fill="" stroke="none">
<path d="M2260 4795 c-1013 -141 -1805 -933 -1934 -1933 -21 -161 -21 -443 0
-604 113 -877 751 -1617 1607 -1864 201 -58 327 -76 568 -81 254 -6 409 10
615 62 864 221 1504 912 1665 1795 31 166 38 498 14 681 -127 1006 -931 1814
-1933 1943 -150 19 -465 20 -602 1z m860 -1246 c82 -13 172 -54 232 -108 31
-28 55 -41 75 -41 53 1 166 30 231 60 36 17 67 28 69 26 3 -3 -7 -28 -23 -56
-25 -47 -80 -105 -146 -157 -16 -11 -28 -24 -28 -28 0 -10 107 2 189 21 35 8
66 13 68 11 2 -3 -14 -27 -36 -54 -37 -47 -152 -133 -177 -133 -7 0 -13 -50
-17 -147 -14 -319 -113 -604 -293 -844 -404 -535 -1050 -675 -1815 -392 -54
20 -96 40 -93 45 3 4 35 8 72 8 141 0 357 51 479 114 67 34 137 86 127 95 -5
4 -34 13 -64 20 -171 40 -312 154 -374 301 l-14 35 60 -3 c69 -4 168 6 168 17
0 4 -26 19 -57 35 -192 93 -327 251 -340 396 l-6 57 69 -23 c66 -23 174 -32
174 -16 0 4 -19 26 -41 47 -57 55 -123 159 -148 233 -26 76 -28 195 -5 273 29
99 23 99 132 3 152 -133 360 -268 502 -324 138 -55 305 -87 398 -75 l52 6 0
62 c2 328 179 521 500 546 8 0 44 -4 80 -10z"/>
</g>
</svg>
