<?xml version="1.0" standalone="no"?>
<!DOCTYPE svg PUBLIC "-//W3C//DTD SVG 20010904//EN"
 "http://www.w3.org/TR/2001/REC-SVG-20010904/DTD/svg10.dtd">
<svg version="1.0" xmlns="http://www.w3.org/2000/svg"
 width="512.000000pt" height="512.000000pt" viewBox="0 0 512.000000 512.000000"
 preserveAspectRatio="xMidYMid meet">

<g transform="translate(0.000000,512.000000) scale(0.100000,-0.100000)"
fill="#000000" stroke="none">
<path d="M2470 4913 c-892 -28 -1717 -596 -2075 -1429 -189 -440 -238 -953
-135 -1427 133 -612 521 -1161 1060 -1497 278 -174 639 -300 969 -340 121 -14
421 -14 542 0 710 85 1349 491 1729 1100 174 278 300 639 340 969 14 121 14
421 0 542 -61 512 -289 991 -650 1363 -473 488 -1096 740 -1780 719z m-892
-1757 c33 -17 40 -30 87 -158 68 -186 124 -290 227 -426 95 -123 188 -147 235
-59 15 27 18 60 18 227 0 182 -1 198 -22 236 -23 43 -67 77 -116 89 -43 11
-30 35 37 70 l60 30 220 0 c201 0 225 -2 260 -20 22 -11 49 -33 60 -48 20 -27
21 -39 18 -259 -3 -254 5 -326 44 -364 67 -68 188 11 316 206 61 92 103 182
157 330 63 172 34 160 382 160 181 0 298 -4 310 -10 53 -29 -5 -214 -126 -400
-23 -36 -97 -134 -164 -219 -198 -249 -199 -257 -63 -385 312 -293 372 -360
372 -417 0 -37 -34 -77 -78 -89 -21 -5 -144 -10 -278 -10 -325 0 -322 -1 -537
173 -120 97 -171 127 -219 127 -73 0 -106 -53 -115 -187 -8 -113 -9 -113 -183
-113 -207 0 -316 23 -470 100 -282 141 -528 444 -812 1000 -41 80 -98 198
-127 263 -51 113 -52 119 -37 142 l16 25 251 0 c196 0 256 -3 277 -14z"/>
</g>
</svg>
